<?xml version="1.0" encoding="UTF-8"?><svg id="Layer_1" xmlns="http://www.w3.org/2000/svg" viewBox="0 0 512 512"><defs><style>.cls-1{fill:#272d3b;}</style></defs><path class="cls-1" d="M353.03,166.86c-17.85-8.19-36.98-14.22-56.99-17.68-.36-.07-.73,.1-.92,.43-2.46,4.38-5.19,10.09-7.1,14.58-21.52-3.22-42.93-3.22-64.01,0-1.91-4.59-4.73-10.2-7.21-14.58-.19-.32-.55-.49-.92-.43-20,3.44-39.14,9.48-56.99,17.68-.15,.07-.29,.18-.38,.32-36.3,54.23-46.24,107.13-41.37,159.37,.02,.26,.17,.5,.36,.66,23.95,17.59,47.15,28.27,69.92,35.34,.36,.11,.75-.02,.98-.32,5.39-7.35,10.19-15.11,14.3-23.27,.24-.48,.01-1.04-.49-1.23-7.62-2.89-14.87-6.41-21.84-10.41-.55-.32-.6-1.11-.09-1.49,1.47-1.1,2.94-2.24,4.34-3.4,.25-.21,.61-.26,.91-.12,45.82,20.92,95.43,20.92,140.72,0,.3-.14,.65-.1,.92,.11,1.4,1.16,2.87,2.31,4.35,3.41,.51,.38,.47,1.17-.08,1.49-6.98,4.08-14.23,7.52-21.85,10.4-.5,.19-.72,.77-.47,1.24,4.2,8.14,9.01,15.9,14.29,23.25,.22,.31,.62,.44,.98,.33,22.88-7.08,46.08-17.75,70.03-35.34,.21-.16,.34-.39,.36-.64,5.84-60.4-9.78-112.86-41.4-159.37-.08-.16-.21-.27-.36-.33Zm-143.46,127.88c-13.8,0-25.16-12.67-25.16-28.22s11.15-28.22,25.16-28.22,25.38,12.78,25.16,28.22c0,15.55-11.15,28.22-25.16,28.22Zm93.04,0c-13.8,0-25.16-12.67-25.16-28.22s11.15-28.22,25.16-28.22,25.38,12.78,25.16,28.22c0,15.55-11.04,28.22-25.16,28.22Z"/></svg>