<?xml version="1.0" encoding="UTF-8"?><svg id="Layer_1" xmlns="http://www.w3.org/2000/svg" viewBox="0 0 512 512"><defs><style>.cls-1{fill:#272d3b;}.cls-2{fill:#fffaf7;}</style></defs><path class="cls-1" d="M327.77,266.53c0,15.55-11.04,28.22-25.16,28.22s-25.17-12.67-25.17-28.22,11.15-28.22,25.17-28.22,25.38,12.77,25.16,28.22Z"/><path class="cls-1" d="M234.73,266.53c0,15.55-11.15,28.22-25.16,28.22s-25.17-12.67-25.17-28.22,11.15-28.22,25.17-28.22,25.38,12.77,25.16,28.22Z"/><path class="cls-1" d="M437.02,74.98C390.69,28.65,326.69,0,256,0,114.62,0,0,114.62,0,256,0,326.69,28.65,390.69,74.98,437.02s110.33,74.98,181.02,74.98,134.69-28.65,181.02-74.98,74.98-110.33,74.98-181.02-28.65-134.69-74.98-181.02Zm-42.23,251.59c-.02,.25-.15,.49-.36,.64-23.95,17.59-47.15,28.27-70.03,35.35-.36,.11-.76-.03-.98-.34-5.29-7.35-10.09-15.11-14.29-23.25-.24-.48-.02-1.06,.47-1.25,7.63-2.87,14.88-6.32,21.86-10.4,.55-.32,.58-1.11,.07-1.48-1.48-1.1-2.94-2.26-4.35-3.42-.26-.21-.61-.25-.91-.11-45.29,20.92-94.89,20.92-140.72,0-.3-.13-.65-.09-.9,.13-1.41,1.15-2.87,2.3-4.34,3.4-.51,.37-.46,1.16,.09,1.48,6.97,4,14.22,7.53,21.84,10.42,.5,.18,.73,.75,.48,1.23-4.11,8.15-8.91,15.91-14.3,23.26-.23,.3-.62,.44-.98,.33-22.77-7.08-45.97-17.76-69.92-35.35-.2-.15-.34-.4-.36-.65-4.88-52.24,5.06-105.14,41.36-159.37,.09-.15,.22-.26,.38-.33,17.86-8.19,36.99-14.23,56.99-17.67,.37-.06,.73,.11,.92,.43,2.47,4.38,5.29,9.99,7.2,14.58,21.08-3.22,42.49-3.22,64.02,0,1.91-4.49,4.63-10.2,7.09-14.58,.19-.33,.55-.5,.92-.43,20.01,3.45,39.15,9.49,56.99,17.67,.16,.07,.29,.18,.37,.34,31.62,46.51,47.23,98.97,41.39,159.37Z"/><path class="cls-2" d="M353.4,167.2c-.08-.16-.21-.27-.37-.34-17.84-8.18-36.98-14.22-56.99-17.67-.37-.07-.73,.1-.92,.43-2.46,4.38-5.18,10.09-7.09,14.58-21.53-3.22-42.94-3.22-64.02,0-1.91-4.59-4.73-10.2-7.2-14.58-.19-.32-.55-.49-.92-.43-20,3.44-39.13,9.48-56.99,17.67-.16,.07-.29,.18-.38,.33-36.3,54.23-46.24,107.13-41.36,159.37,.02,.25,.16,.5,.36,.65,23.95,17.59,47.15,28.27,69.92,35.35,.36,.11,.75-.03,.98-.33,5.39-7.35,10.19-15.11,14.3-23.26,.25-.48,.02-1.05-.48-1.23-7.62-2.89-14.87-6.42-21.84-10.42-.55-.32-.6-1.11-.09-1.48,1.47-1.1,2.93-2.25,4.34-3.4,.25-.22,.6-.26,.9-.13,45.83,20.92,95.43,20.92,140.72,0,.3-.14,.65-.1,.91,.11,1.41,1.16,2.87,2.32,4.35,3.42,.51,.37,.48,1.16-.07,1.48-6.98,4.08-14.23,7.53-21.86,10.4-.49,.19-.71,.77-.47,1.25,4.2,8.14,9,15.9,14.29,23.25,.22,.31,.62,.45,.98,.34,22.88-7.08,46.08-17.76,70.03-35.35,.21-.15,.34-.39,.36-.64,5.84-60.4-9.77-112.86-41.39-159.37Zm-143.83,127.55c-13.8,0-25.17-12.67-25.17-28.22s11.15-28.22,25.17-28.22,25.38,12.77,25.16,28.22c0,15.55-11.15,28.22-25.16,28.22Zm93.04,0c-13.8,0-25.17-12.67-25.17-28.22s11.15-28.22,25.17-28.22,25.38,12.77,25.16,28.22c0,15.55-11.04,28.22-25.16,28.22Z"/></svg>