<?xml version="1.0" encoding="UTF-8"?><svg id="Layer_1" xmlns="http://www.w3.org/2000/svg" viewBox="0 0 512 512"><defs><style>.cls-1{fill:#272d3b;}.cls-2{fill:#fffaf7;}</style></defs><rect class="cls-1" x="0" y="0" width="512" height="512" rx="256" ry="256"/><path class="cls-2" d="M396,194.67v122.66c0,17.68-14.33,32-32,32H148c-17.67,0-32-14.32-32-32v-122.66c0-5.44,1.36-10.56,3.76-15.05l109.57,86.1c7.92,6.22,17.4,9.32,26.88,9.32s18.96-3.1,26.88-9.32l109.27-85.86c2.32,4.43,3.64,9.46,3.64,14.81Z"/><path class="cls-2" d="M374.68,164.5l-105.8,83.13c-7.46,5.86-17.88,5.86-25.34,0l-105.93-83.23c3.26-1.12,6.75-1.73,10.39-1.73h216c3.75,0,7.34,.65,10.68,1.83Z"/></svg>