<?xml version="1.0" encoding="UTF-8"?><svg id="Layer_1" xmlns="http://www.w3.org/2000/svg" viewBox="0 0 512 512"><defs><style>.cls-1{fill:#272d3b;}</style></defs><path class="cls-1" d="M112.13,287.84s0,.91-.92,.91c0,0-.91,0-.91-.91l-1.81-16.34,1.81-16.34c0-.91,.91-.91,.91-.91,0,0,.92,0,.92,.91l2.72,16.34-2.72,16.34Zm10.88,9.98s0,.92-.91,.92c0,0-.91,0-.91-.92l-2.72-26.32,2.72-26.32,.91-.92s.91,0,.91,.92l3.63,26.32-3.63,26.32Zm12.72,3.63c0,.91-.92,1.81-.92,1.81-.91,0-1.81-.91-1.81-1.81l-2.72-29.95,2.72-31.77c0-.92,.91-.92,.91-1.82,.91,0,1.82,.91,1.82,1.82l2.72,31.77-2.72,29.95Zm11.8,.91c0,.91-.92,1.82-1.82,1.82s-1.81-.92-1.81-1.82l-2.72-30.86,2.72-32.68c.91-.91,.91-1.81,1.81-1.81s1.82,.91,1.82,1.81l2.72,32.68-2.72,30.86Zm11.8,.91c0,.92-.92,1.82-1.82,1.82s-1.81-.91-1.81-1.82l-1.81-31.77,1.81-29.95c0-.91,.91-1.81,2.72-1.81,.92,0,1.82,.91,1.82,1.81l2.72,29.95-3.62,31.77Zm12.71,0c0,.92-.91,1.82-2.73,1.82-.91,0-1.81-.91-1.81-1.82l-2.72-31.77,2.72-49.01c0-.91,.91-1.82,2.72-1.82,.92,0,1.82,.92,1.82,1.82l2.72,49.01-2.72,31.77Zm12.71,0c0,1.82-1.81,2.73-2.73,2.73-1.81,0-2.72-.91-2.72-2.73l-1.81-31.77,1.81-59.91c0-1.81,.91-2.73,2.72-2.73s2.73,.92,2.73,2.73l2.72,59.91-2.72,31.77Zm11.8-.91c0,1.82-.91,2.73-2.73,2.73s-2.72-.91-2.72-2.73l-1.81-30.86,1.81-65.35c0-.91,.91-2.73,2.72-2.73s2.73,.92,2.73,2.73l1.81,65.35-1.81,30.86Zm11.8,0c0,1.82-.91,2.73-2.73,2.73s-2.72-.91-2.72-2.73l-1.81-30.86,1.81-67.17c0-1.82,1.81-2.73,2.72-2.73s2.73,.91,2.73,2.73l1.81,67.17-1.81,30.86Zm13.61,0c0,1.82-1.81,3.63-3.62,3.63s-3.63-1.81-3.63-3.63l-1.81-30.86,1.81-65.35c0-1.81,1.81-3.63,3.63-3.63s3.62,1.82,3.62,3.63l1.82,65.35-1.82,30.86Zm12.71-.91c0,1.81-1.81,3.63-3.62,3.63s-3.63-1.82-3.63-3.63l-1.81-29.95,1.81-62.63c0-2.72,.91-3.62,3.63-4.53,1.81,0,3.62,1.81,3.62,3.62l1.82,63.54-1.82,29.95Zm11.8,0c0,1.81-1.81,3.63-3.62,3.63s-3.63-1.82-3.63-3.63l-1.81-29.95,1.81-75.34c0-1.81,1.81-3.62,3.63-3.62s3.62,1.81,3.62,3.62l1.82,75.34-1.82,29.95Zm12.72,0c0,1.81-1.82,3.63-3.63,3.63s-3.63-1.82-3.63-3.63l-1.81-29.95,1.81-81.69c0-1.81,.91-3.62,2.73-3.62h.91c1.81,0,3.63,1.81,3.63,3.62l1.81,81.69-1.81,29.95Zm108.01,4.54h-100.75c-1.82-.91-3.63-2.73-3.63-4.54v-115.27c0-2.73,.91-3.63,3.63-4.54,6.35-1.82,12.71-3.63,19.06-3.63h4.54c33.58,0,60.81,25.41,63.54,58.09,3.62-1.81,9.07-2.72,13.61-2.72,19.97,0,36.31,16.33,36.31,36.31s-16.34,36.31-36.31,36.31Z"/></svg>