<?xml version="1.0" encoding="UTF-8"?><svg id="Layer_1" xmlns="http://www.w3.org/2000/svg" viewBox="0 0 512 512"><defs><style>.cls-1{fill:#272d3b;}.cls-2{fill:#fff;}.cls-3{fill:#fffaf7;}</style></defs><path class="cls-1" d="M437.02,74.98C390.7,28.65,326.7,0,256,0,114.61,0,0,114.61,0,256c0,70.7,28.65,134.7,74.98,181.02,46.32,46.33,110.32,74.98,181.02,74.98s134.7-28.65,181.02-74.98c46.33-46.32,74.98-110.32,74.98-181.02s-28.65-134.7-74.98-181.02ZM112.13,287.84s0,.91-.91,.91c0,0-.91,0-.91-.91l-1.81-16.34,1.81-16.34c0-.91,.91-.91,.91-.91,0,0,.91,0,.91,.91l2.72,16.34-2.72,16.34Zm10.89,9.98s0,.91-.91,.91c0,0-.9,0-.9-.91l-2.72-26.32,2.72-26.32,.9-.91s.91,0,.91,.91l3.63,26.32-3.63,26.32Zm12.71,3.63c0,.91-.91,1.82-.91,1.82-.91,0-1.81-.91-1.81-1.82l-2.72-29.95,2.72-31.77c0-.91,.9-.91,.9-1.82,.91,0,1.82,.91,1.82,1.82l2.72,31.77-2.72,29.95Zm11.8,.91c0,.91-.91,1.82-1.82,1.82s-1.81-.91-1.81-1.82l-2.72-30.86,2.72-32.68c.91-.91,.91-1.81,1.81-1.81s1.82,.9,1.82,1.81l2.72,32.68-2.72,30.86Zm11.8,.91c0,.91-.91,1.82-1.82,1.82s-1.81-.91-1.81-1.82l-1.81-31.77,1.81-29.95c0-.91,.91-1.82,2.72-1.82,.91,0,1.82,.91,1.82,1.82l2.72,29.95-3.63,31.77Zm12.71,0c0,.91-.91,1.82-2.73,1.82-.9,0-1.81-.91-1.81-1.82l-2.72-31.77,2.72-49.01c0-.91,.91-1.82,2.72-1.82,.91,0,1.82,.91,1.82,1.82l2.72,49.01-2.72,31.77Zm12.71,0c0,1.82-1.82,2.72-2.73,2.72-1.81,0-2.72-.9-2.72-2.72l-1.81-31.77,1.81-59.91c0-1.81,.91-2.72,2.72-2.72s2.73,.91,2.73,2.72l2.72,59.91-2.72,31.77Zm11.8-.91c0,1.82-.91,2.73-2.73,2.73s-2.72-.91-2.72-2.73l-1.81-30.86,1.81-65.35c0-.91,.91-2.73,2.72-2.73s2.73,.91,2.73,2.73l1.81,65.35-1.81,30.86Zm11.8,0c0,1.82-.91,2.73-2.73,2.73s-2.72-.91-2.72-2.73l-1.81-30.86,1.81-67.17c0-1.82,1.81-2.72,2.72-2.72s2.73,.9,2.73,2.72l1.81,67.17-1.81,30.86Zm13.61,0c0,1.82-1.81,3.63-3.63,3.63s-3.63-1.81-3.63-3.63l-1.81-30.86,1.81-65.35c0-1.82,1.81-3.64,3.63-3.64s3.63,1.82,3.63,3.64l1.82,65.35-1.82,30.86Zm12.71-.91c0,1.82-1.82,3.64-3.63,3.64s-3.63-1.82-3.63-3.64l-1.82-29.95,1.82-62.63c0-2.72,.9-3.63,3.63-4.54,1.81,0,3.63,1.82,3.63,3.63l1.82,63.54-1.82,29.95Zm11.8,0c0,1.82-1.82,3.64-3.63,3.64s-3.63-1.82-3.63-3.64l-1.82-29.95,1.82-75.34c0-1.81,1.81-3.63,3.63-3.63s3.63,1.82,3.63,3.63l1.82,75.34-1.82,29.95Zm12.71,0c0,1.82-1.82,3.64-3.63,3.64s-3.64-1.82-3.64-3.64l-1.81-29.95,1.81-81.69c0-1.82,.91-3.63,2.73-3.63h.91c1.81,0,3.63,1.81,3.63,3.63l1.81,81.69-1.81,29.95Zm108.01,4.54h-100.75c-1.82-.9-3.63-2.72-3.63-4.54v-115.27c0-2.73,.9-3.63,3.63-4.54,6.35-1.82,12.71-3.63,19.06-3.63h4.54c33.58,0,60.81,25.41,63.54,58.09,3.63-1.81,9.07-2.72,13.61-2.72,19.97,0,36.31,16.33,36.31,36.31s-16.34,36.3-36.31,36.3Z"/><path class="cls-3" d="M114.85,271.5l-2.72,16.34s0,.91-.91,.91c0,0-.91,0-.91-.91l-1.81-16.34,1.81-16.34c0-.91,.91-.91,.91-.91,0,0,.91,0,.91,.91l2.72,16.34Z"/><path class="cls-3" d="M126.65,271.5l-3.63,26.32s0,.91-.91,.91c0,0-.9,0-.9-.91l-2.72-26.32,2.72-26.32,.9-.91s.91,0,.91,.91l3.63,26.32Z"/><path class="cls-3" d="M138.45,271.5l-2.72,29.95c0,.91-.91,1.82-.91,1.82-.91,0-1.81-.91-1.81-1.82l-2.72-29.95,2.72-31.77c0-.91,.9-.91,.9-1.82,.91,0,1.82,.91,1.82,1.82l2.72,31.77Z"/><path class="cls-3" d="M150.25,271.5l-2.72,30.86c0,.91-.91,1.82-1.82,1.82s-1.81-.91-1.81-1.82l-2.72-30.86,2.72-32.68c.91-.91,.91-1.81,1.81-1.81s1.82,.9,1.82,1.81l2.72,32.68Z"/><path class="cls-3" d="M162.96,271.5l-3.63,31.77c0,.91-.91,1.82-1.82,1.82s-1.81-.91-1.81-1.82l-1.81-31.77,1.81-29.95c0-.91,.91-1.82,2.72-1.82,.91,0,1.82,.91,1.82,1.82l2.72,29.95Z"/><path class="cls-3" d="M174.76,271.5l-2.72,31.77c0,.91-.91,1.82-2.73,1.82-.9,0-1.81-.91-1.81-1.82l-2.72-31.77,2.72-49.01c0-.91,.91-1.82,2.72-1.82,.91,0,1.82,.91,1.82,1.82l2.72,49.01Z"/><path class="cls-3" d="M187.47,271.5l-2.72,31.77c0,1.82-1.82,2.72-2.73,2.72-1.81,0-2.72-.9-2.72-2.72l-1.81-31.77,1.81-59.91c0-1.81,.91-2.72,2.72-2.72s2.73,.91,2.73,2.72l2.72,59.91Z"/><path class="cls-3" d="M198.36,271.5l-1.81,30.86c0,1.82-.91,2.73-2.73,2.73s-2.72-.91-2.72-2.73l-1.81-30.86,1.81-65.35c0-.91,.91-2.73,2.72-2.73s2.73,.91,2.73,2.73l1.81,65.35Z"/><path class="cls-3" d="M210.16,271.5l-1.81,30.86c0,1.82-.91,2.73-2.73,2.73s-2.72-.91-2.72-2.73l-1.81-30.86,1.81-67.17c0-1.82,1.81-2.72,2.72-2.72s2.73,.9,2.73,2.72l1.81,67.17Z"/><path class="cls-3" d="M223.78,271.5l-1.82,30.86c0,1.82-1.81,3.63-3.63,3.63s-3.63-1.81-3.63-3.63l-1.81-30.86,1.81-65.35c0-1.82,1.81-3.64,3.63-3.64s3.63,1.82,3.63,3.64l1.82,65.35Z"/><path class="cls-3" d="M236.49,271.5l-1.82,29.95c0,1.82-1.82,3.64-3.63,3.64s-3.63-1.82-3.63-3.64l-1.82-29.95,1.82-62.63c0-2.72,.9-3.63,3.63-4.54,1.81,0,3.63,1.82,3.63,3.63l1.82,63.54Z"/><path class="cls-3" d="M248.29,271.5l-1.82,29.95c0,1.82-1.82,3.64-3.63,3.64s-3.63-1.82-3.63-3.64l-1.82-29.95,1.82-75.34c0-1.81,1.81-3.63,3.63-3.63s3.63,1.82,3.63,3.63l1.82,75.34Z"/><path class="cls-3" d="M260.99,271.5l-1.81,29.95c0,1.82-1.82,3.64-3.63,3.64s-3.64-1.82-3.64-3.64l-1.81-29.95,1.81-81.69c0-1.82,.91-3.63,2.73-3.63h.91c1.81,0,3.63,1.81,3.63,3.63l1.81,81.69Z"/><path class="cls-2" d="M403.5,269.69c0,19.96-16.34,36.3-36.31,36.3h-100.75c-1.82-.9-3.63-2.72-3.63-4.54v-115.27c0-2.73,.9-3.63,3.63-4.54,6.35-1.82,12.71-3.63,19.06-3.63h4.54c33.58,0,60.81,25.41,63.54,58.09,3.63-1.81,9.07-2.72,13.61-2.72,19.97,0,36.31,16.33,36.31,36.31Z"/></svg>