<?xml version="1.0" encoding="UTF-8"?><svg id="Layer_1" xmlns="http://www.w3.org/2000/svg" viewBox="0 0 512 512"><defs><style>.cls-1{fill:#272d3b;}</style></defs><path class="cls-1" d="M256,116c-77.28,0-140,62.72-140,140s62.72,140,140,140,140-62.72,140-140-62.72-140-140-140Zm56.85,205.99c-2.37,0-3.84-.73-6.04-2.03-35.23-21.23-76.21-22.13-116.69-13.83-2.2,.56-5.08,1.47-6.72,1.47-5.47,0-8.92-4.35-8.92-8.92,0-5.82,3.45-8.58,7.68-9.49,46.24-10.21,93.49-9.31,133.79,14.79,3.45,2.21,5.48,4.18,5.48,9.32s-4.01,8.69-8.58,8.69Zm15.18-37.03c-2.93,0-4.91-1.3-6.94-2.37-35.28-20.89-87.9-29.3-134.69-16.6-2.71,.74-4.18,1.47-6.72,1.47-6.04,0-10.95-4.91-10.95-10.95s2.93-10.05,8.75-11.69c15.69-4.4,31.72-7.67,55.21-7.67,36.63,0,72.03,9.08,99.91,25.68,4.58,2.71,6.38,6.21,6.38,11.12-.05,6.1-4.79,11.01-10.95,11.01Zm17.5-43.02c-2.93,0-4.74-.73-7.28-2.2-40.19-23.99-112.06-29.75-158.57-16.76-2.03,.56-4.58,1.46-7.28,1.46-7.46,0-13.16-5.81-13.16-13.32s4.74-12.02,9.82-13.49c19.88-5.82,42.12-8.58,66.34-8.58,41.2,0,84.39,8.58,115.95,26.98,4.4,2.54,7.28,6.04,7.28,12.76,0,7.68-6.21,13.15-13.1,13.15Z"/></svg>