<?xml version="1.0" encoding="UTF-8"?><svg id="Layer_1" xmlns="http://www.w3.org/2000/svg" viewBox="0 0 512 512"><defs><style>.cls-1{fill:#272d3b;}.cls-2{fill:#fffaf7;}</style></defs><rect class="cls-1" x="0" y="0" width="512" height="512" rx="256" ry="256"/><path class="cls-2" d="M378.04,183.07v47.93c-24.92,0-47.99-7.93-66.83-21.38v97.8c0,48.93-39.68,88.59-88.63,88.59-24.83,0-47.29-10.21-63.36-26.65-15.64-15.98-25.27-37.82-25.27-61.94,0-48.29,38.68-87.57,86.77-88.55v-.02c4.68-.08,9.37,.18,14.01,.82v48.99c-3.96-1.26-8.13-1.9-12.29-1.9-22.4,0-40.54,18.16-40.54,40.52-.02,8.87,2.88,17.5,8.27,24.54,7.41,9.71,19.1,15.98,32.27,15.98,22.34,0,40.46-18.06,40.54-40.38V116h48.23v6.17c1.36,15.02,7.69,28.59,17.32,39.1,9.25,10.11,21.56,17.38,35.48,20.34,4.6,.96,9.31,1.46,14.03,1.46Z"/></svg>