<?xml version="1.0" encoding="UTF-8"?><svg id="Layer_1" xmlns="http://www.w3.org/2000/svg" viewBox="0 0 512 512"><defs><style>.cls-1{fill:#272d3b;}.cls-2{fill:#fffaf7;}</style></defs><path class="cls-1" d="M437.02,74.98C390.7,28.65,326.7,0,256,0,114.61,0,0,114.61,0,256c0,70.7,28.65,134.7,74.98,181.02,46.32,46.33,110.32,74.98,181.02,74.98s134.7-28.65,181.02-74.98c46.33-46.32,74.98-110.32,74.98-181.02s-28.65-134.7-74.98-181.02Zm-69.69,120.9c.18,2.47,.18,4.94,.18,7.43,0,75.91-57.79,163.45-163.45,163.45v-.05c-31.22,.05-61.78-8.89-88.06-25.75,4.54,.55,9.1,.82,13.67,.83,25.87,.02,51-8.66,71.35-24.64-24.58-.46-46.14-16.49-53.67-39.89,8.61,1.66,17.48,1.32,25.94-.99-26.8-5.42-46.09-28.96-46.09-56.31v-.73c7.99,4.45,16.93,6.92,26.08,7.19-25.25-16.87-33.03-50.45-17.78-76.7,29.16,35.89,72.2,57.71,118.39,60.02-4.63-19.96,1.69-40.86,16.62-54.89,23.14-21.75,59.53-20.63,81.27,2.49,12.87-2.53,25.2-7.26,36.48-13.94-4.28,13.29-13.26,24.59-25.25,31.77,11.39-1.35,22.51-4.39,32.99-9.05-7.71,11.56-17.43,21.63-28.67,29.76Z"/><path class="cls-2" d="M367.33,195.88c.18,2.47,.18,4.94,.18,7.43,0,75.91-57.79,163.45-163.45,163.45v-.05c-31.22,.05-61.78-8.89-88.06-25.75,4.54,.55,9.1,.82,13.67,.83,25.87,.02,51-8.66,71.35-24.64-24.58-.46-46.14-16.49-53.67-39.89,8.61,1.66,17.48,1.32,25.94-.99-26.8-5.42-46.09-28.96-46.09-56.31v-.73c7.99,4.45,16.93,6.92,26.08,7.19-25.25-16.87-33.03-50.45-17.78-76.7,29.16,35.89,72.2,57.71,118.39,60.02-4.63-19.96,1.69-40.86,16.62-54.89,23.14-21.75,59.53-20.63,81.27,2.49,12.87-2.53,25.2-7.26,36.48-13.94-4.28,13.29-13.26,24.59-25.25,31.77,11.39-1.35,22.51-4.39,32.99-9.05-7.71,11.56-17.43,21.63-28.67,29.76Z"/></svg>