<?xml version="1.0" encoding="UTF-8"?><svg id="Layer_1" xmlns="http://www.w3.org/2000/svg" viewBox="0 0 512 512"><defs><style>.cls-1{fill:#272d3b;}.cls-2{fill:#fffaf7;}</style></defs><polygon class="cls-1" points="301.06 255.65 228.32 297.65 228.32 213.65 301.06 255.65"/><path class="cls-1" d="M437.02,74.98C390.7,28.65,326.7,0,256,0,114.61,0,0,114.61,0,256c0,70.7,28.65,134.7,74.98,181.02,46.32,46.33,110.32,74.98,181.02,74.98s134.7-28.65,181.02-74.98c46.33-46.32,74.98-110.32,74.98-181.02s-28.65-134.7-74.98-181.02Zm-46.54,248.06c-3.22,12.06-12.69,21.53-24.74,24.76-21.84,5.85-109.4,5.85-109.4,5.85,0,0-87.56,0-109.39-5.85-12.05-3.23-21.53-12.7-24.75-24.76-5.85-21.82-5.85-67.39-5.85-67.39,0,0,0-45.58,5.85-67.4,3.22-12.05,12.7-21.53,24.75-24.76,21.83-5.85,109.39-5.85,109.39-5.85,0,0,87.56,0,109.4,5.85,12.05,3.23,21.52,12.71,24.74,24.76,5.84,21.82,5.87,67.4,5.87,67.4,0,0,0,45.57-5.87,67.39Z"/><path class="cls-2" d="M390.48,188.25c-3.22-12.05-12.69-21.53-24.74-24.76-21.84-5.85-109.4-5.85-109.4-5.85,0,0-87.56,0-109.39,5.85-12.05,3.23-21.53,12.71-24.75,24.76-5.85,21.82-5.85,67.4-5.85,67.4,0,0,0,45.57,5.85,67.39,3.22,12.06,12.7,21.53,24.75,24.76,21.83,5.85,109.39,5.85,109.39,5.85,0,0,87.56,0,109.4-5.85,12.05-3.23,21.52-12.7,24.74-24.76,5.87-21.82,5.87-67.39,5.87-67.39,0,0-.03-45.58-5.87-67.4Zm-162.16,109.4v-84l72.74,42-72.74,42Z"/></svg>