<?xml version="1.0" standalone="no"?>
<!DOCTYPE svg PUBLIC "-//W3C//DTD SVG 20010904//EN"
 "http://www.w3.org/TR/2001/REC-SVG-20010904/DTD/svg10.dtd">
<svg version="1.0" xmlns="http://www.w3.org/2000/svg"
 width="700.000000pt" height="700.000000pt" viewBox="0 0 700.000000 700.000000"
 preserveAspectRatio="xMidYMid meet">
<metadata>
Created by potrace 1.14, written by Peter Selinger 2001-2017
</metadata>
<g transform="translate(0.000000,700.000000) scale(0.100000,-0.100000)"
fill="#000000" stroke="none">
<path d="M1795 6126 c-91 -43 -145 -126 -145 -226 0 -139 111 -250 250 -250
138 0 249 111 250 250 0 182 -191 304 -355 226z"/>
<path d="M1043 6069 c-46 -14 -100 -71 -113 -121 -48 -176 165 -300 293 -171
106 106 45 282 -104 298 -24 2 -59 0 -76 -6z"/>
<path d="M1795 5326 c-91 -43 -145 -126 -145 -226 0 -139 111 -250 250 -250
138 0 249 111 250 250 0 182 -191 304 -355 226z"/>
<path d="M1043 5269 c-46 -14 -100 -71 -113 -121 -48 -175 164 -301 292 -173
107 108 47 284 -103 300 -24 2 -59 0 -76 -6z"/>
<path d="M5006 4690 c-63 -16 -153 -70 -197 -117 -22 -24 -55 -74 -72 -111
-29 -61 -32 -76 -32 -163 0 -90 2 -99 38 -171 25 -51 53 -91 85 -119 51 -45
154 -99 190 -99 12 0 22 -4 22 -10 0 -5 -11 -10 -24 -10 -41 0 -161 -68 -206
-116 -23 -25 -56 -75 -73 -112 -29 -61 -32 -76 -32 -162 0 -86 3 -101 32 -162
17 -37 50 -87 73 -112 45 -48 165 -116 206 -116 13 0 24 -4 24 -10 0 -5 -11
-10 -24 -10 -41 0 -161 -68 -206 -116 -23 -25 -56 -75 -73 -112 -29 -61 -32
-76 -32 -162 0 -86 3 -101 32 -162 17 -37 50 -87 73 -112 45 -48 165 -116 206
-116 13 0 24 -4 24 -10 0 -5 -11 -10 -24 -10 -41 0 -161 -68 -206 -116 -23
-25 -56 -75 -73 -112 -29 -61 -32 -76 -32 -162 0 -86 3 -101 32 -162 17 -37
50 -87 73 -112 45 -48 165 -116 206 -116 13 0 24 -4 24 -10 0 -5 -10 -10 -22
-10 -36 0 -139 -54 -190 -99 -32 -28 -60 -68 -85 -119 -36 -72 -38 -81 -38
-172 0 -91 2 -100 37 -172 45 -91 103 -147 196 -191 61 -29 76 -32 162 -32 86
0 101 3 162 32 37 17 87 50 112 73 48 45 116 165 116 206 0 13 5 24 10 24 6 0
10 -11 10 -24 0 -41 68 -161 116 -206 25 -23 75 -56 112 -73 61 -29 76 -32
162 -32 86 0 101 3 162 32 93 44 151 100 196 191 35 72 37 81 37 171 0 87 -3
102 -32 163 -17 37 -50 87 -73 112 -45 48 -165 116 -206 116 -13 0 -24 5 -24
10 0 6 11 10 24 10 41 0 161 68 206 116 23 25 56 75 73 112 29 61 32 76 32
162 0 86 -3 101 -32 162 -17 37 -50 87 -73 112 -45 48 -165 116 -206 116 -13
0 -24 5 -24 10 0 6 11 10 24 10 41 0 161 68 206 116 23 25 56 75 73 112 29 61
32 76 32 162 0 86 -3 101 -32 162 -17 37 -50 87 -73 112 -45 48 -165 116 -206
116 -13 0 -24 5 -24 10 0 6 11 10 24 10 41 0 161 68 206 116 23 25 56 75 73
112 29 61 32 76 32 162 0 86 -3 101 -32 162 -17 37 -50 87 -73 112 -45 48
-165 116 -206 116 -13 0 -24 5 -24 10 0 6 11 10 24 10 41 0 161 68 206 116 23
25 56 75 73 112 29 61 32 76 32 162 0 86 -3 101 -32 162 -44 93 -100 151 -191
196 -72 35 -81 37 -171 37 -87 0 -102 -3 -163 -32 -37 -17 -87 -50 -112 -73
-48 -45 -116 -165 -116 -206 0 -13 -4 -24 -10 -24 -5 0 -10 11 -10 24 0 41
-68 161 -116 206 -70 64 -158 101 -252 106 -42 2 -94 -1 -116 -6z m504 -472
c0 -42 58 -147 110 -198 51 -52 156 -110 198 -110 12 0 22 -4 22 -10 0 -5 -10
-10 -22 -10 -37 0 -144 -56 -192 -101 -48 -44 -116 -164 -116 -205 0 -13 -4
-24 -10 -24 -5 0 -10 11 -10 24 0 41 -68 161 -116 205 -48 45 -155 101 -191
101 -13 0 -23 5 -23 10 0 6 10 10 23 10 36 0 143 56 191 101 48 44 116 164
116 205 0 13 5 24 10 24 6 0 10 -10 10 -22z m0 -802 c0 -43 68 -163 118 -207
51 -45 154 -99 190 -99 12 0 22 -4 22 -10 0 -5 -10 -10 -22 -10 -37 0 -144
-56 -192 -101 -48 -44 -116 -164 -116 -205 0 -13 -4 -24 -10 -24 -5 0 -10 11
-10 24 0 41 -68 161 -116 205 -48 45 -155 101 -191 101 -13 0 -23 5 -23 10 0
6 10 10 23 10 36 0 143 56 191 101 48 44 116 164 116 205 0 13 5 24 10 24 6 0
10 -11 10 -24z m0 -800 c0 -41 68 -161 116 -205 48 -45 155 -101 192 -101 12
0 22 -4 22 -10 0 -5 -10 -10 -22 -10 -36 0 -139 -54 -190 -99 -50 -44 -118
-164 -118 -207 0 -13 -4 -24 -10 -24 -5 0 -10 11 -10 24 0 41 -68 161 -116
205 -48 45 -155 101 -191 101 -13 0 -23 5 -23 10 0 6 10 10 23 10 36 0 143 56
191 101 48 44 116 164 116 205 0 13 5 24 10 24 6 0 10 -11 10 -24z m0 -800 c0
-41 68 -161 116 -205 48 -45 155 -101 192 -101 12 0 22 -4 22 -10 0 -5 -10
-10 -22 -10 -42 0 -147 -58 -198 -110 -52 -51 -110 -156 -110 -197 0 -13 -4
-23 -10 -23 -5 0 -10 11 -10 24 0 41 -68 161 -116 205 -48 45 -155 101 -191
101 -13 0 -23 5 -23 10 0 6 10 10 23 10 36 0 143 56 191 101 48 44 116 164
116 205 0 13 5 24 10 24 6 0 10 -11 10 -24z"/>
<path d="M3425 4616 c-67 -17 -103 -37 -153 -85 -128 -125 -129 -332 -1 -460
126 -125 336 -126 457 -1 126 129 128 330 4 457 -49 50 -98 76 -170 92 -63 13
-72 13 -137 -3z"/>
<path d="M4225 4616 c-69 -17 -105 -38 -158 -91 -135 -135 -115 -371 41 -486
125 -92 309 -80 416 26 131 132 134 337 6 465 -47 47 -97 74 -168 89 -63 13
-72 13 -137 -3z"/>
<path d="M1795 4526 c-91 -43 -145 -126 -145 -226 0 -139 111 -250 250 -250
138 0 249 111 250 250 0 182 -191 304 -355 226z"/>
<path d="M2595 4526 c-91 -43 -145 -126 -145 -226 0 -139 111 -250 250 -250
138 0 249 111 250 250 0 182 -191 304 -355 226z"/>
<path d="M1043 4469 c-46 -14 -100 -71 -113 -121 -48 -175 164 -301 292 -173
107 108 47 284 -103 300 -24 2 -59 0 -76 -6z"/>
<path d="M1795 3726 c-91 -43 -145 -126 -145 -226 0 -139 111 -250 250 -250
138 0 249 111 250 250 0 182 -191 304 -355 226z"/>
<path d="M1043 3669 c-75 -22 -133 -119 -118 -198 26 -143 199 -198 299 -95
105 108 43 283 -105 299 -24 2 -59 0 -76 -6z"/>
<path d="M1795 2926 c-91 -43 -145 -126 -145 -226 0 -139 111 -250 250 -250
138 0 249 111 250 250 0 182 -191 304 -355 226z"/>
<path d="M1043 2869 c-75 -22 -133 -119 -118 -198 26 -143 198 -197 300 -96
105 105 41 284 -107 300 -24 2 -58 0 -75 -6z"/>
<path d="M1795 2126 c-91 -43 -145 -126 -145 -226 0 -139 111 -250 250 -250
138 0 249 111 250 250 0 182 -191 304 -355 226z"/>
<path d="M1043 2069 c-75 -22 -133 -119 -118 -198 26 -143 198 -197 300 -96
104 104 41 284 -105 300 -25 2 -60 0 -77 -6z"/>
<path d="M1795 1326 c-91 -43 -145 -126 -145 -226 0 -139 111 -250 250 -250
138 0 249 111 250 250 0 182 -191 304 -355 226z"/>
</g>
</svg>
