<?xml version="1.0" encoding="UTF-8"?>
<svg id="Layer_1" data-name="Layer 1" xmlns="http://www.w3.org/2000/svg" viewBox="0 0 100 100">
  <defs>
    <style>
      .cls-1 {
        fill: #fff;
      }

      .cls-2 {
        opacity: 0;
      }
    </style>
  </defs>
  <rect class="cls-1" width="100" height="100" rx="17.54" ry="17.54"/>
  <g>
    <circle class="cls-2" cx="22.57" cy="22.57" r="4.57"/>
    <circle cx="77.43" cy="77.43" r="4.57"/>
    <circle cx="77.43" cy="68.29" r="4.57"/>
    <circle cx="77.43" cy="59.14" r="4.57"/>
    <circle cx="77.43" cy="50" r="4.57"/>
    <circle cx="77.43" cy="40.86" r="4.57"/>
    <circle cx="68.29" cy="77.43" r="4.57"/>
    <circle cx="68.29" cy="68.29" r="4.57"/>
    <circle cx="68.29" cy="59.14" r="4.57"/>
    <circle cx="68.29" cy="50" r="4.57"/>
    <circle cx="68.29" cy="40.86" r="4.57"/>
    <circle cx="59.14" cy="40.86" r="3.73"/>
    <circle cx="50" cy="40.86" r="3.73"/>
    <circle cx="40.86" cy="40.86" r="2.88"/>
    <circle cx="31.71" cy="40.86" r="2.88"/>
    <circle cx="22.57" cy="40.86" r="2.03"/>
    <circle cx="31.71" cy="31.71" r="2.88"/>
    <circle cx="22.57" cy="31.71" r="2.03"/>
    <circle cx="31.71" cy="22.57" r="2.88"/>
    <circle cx="22.57" cy="22.57" r="2.03"/>
    <circle cx="31.71" cy="50" r="2.88"/>
    <circle cx="22.57" cy="50" r="2.03"/>
    <circle cx="31.71" cy="59.14" r="2.88"/>
    <circle cx="22.57" cy="59.14" r="2.03"/>
    <circle cx="31.71" cy="68.29" r="2.88"/>
    <circle cx="22.57" cy="68.29" r="2.03"/>
    <circle cx="31.71" cy="77.43" r="2.88"/>
  </g>
</svg>