<?xml version="1.0" encoding="utf-8"?>
<!-- Generator: Adobe Illustrator 27.3.1, SVG Export Plug-In . SVG Version: 6.00 Build 0)  -->
<svg version="1.1" id="spotify" xmlns="http://www.w3.org/2000/svg" xmlns:xlink="http://www.w3.org/1999/xlink" x="0px" y="0px"
	 viewBox="0 0 100 100" style="enable-background:new 0 0 100 100;" xml:space="preserve">
<style type="text/css">
	.st0{fill:#1CCC5B;}
	.st1{fill:#FFFFFF;}
</style>
<circle class="st0" cx="50" cy="50" r="50"/>
<path id="spotify_00000038375368786594459570000004059072727821060794_" class="st1" d="M50,22.7c-15.1,0-27.3,12.2-27.3,27.3
	c0,15.1,12.2,27.3,27.3,27.3S77.3,65.1,77.3,50C77.3,34.9,65.1,22.7,50,22.7z M61.1,62.9c-0.5,0-0.8-0.1-1.2-0.4
	C53,58.3,45,58.2,37.1,59.8c-0.4,0.1-1,0.3-1.3,0.3c-1.1,0-1.7-0.8-1.7-1.7c0-1.1,0.7-1.7,1.5-1.9c9-2,18.3-1.8,26.1,2.9
	c0.7,0.4,1.1,0.8,1.1,1.8C62.8,62.2,62,62.9,61.1,62.9z M64.1,55.7c-0.6,0-1-0.3-1.4-0.5c-6.9-4.1-17.2-5.7-26.3-3.2
	c-0.5,0.1-0.8,0.3-1.3,0.3c-1.2,0-2.1-1-2.1-2.1s0.6-2,1.7-2.3c3.1-0.9,6.2-1.5,10.8-1.5c7.1,0,14.1,1.8,19.5,5
	c0.9,0.5,1.2,1.2,1.2,2.2C66.2,54.7,65.3,55.7,64.1,55.7z M67.5,47.2c-0.6,0-0.9-0.1-1.4-0.4c-7.8-4.7-21.9-5.8-31-3.3
	c-0.4,0.1-0.9,0.3-1.4,0.3c-1.5,0-2.6-1.1-2.6-2.6c0-1.5,0.9-2.3,1.9-2.6c3.9-1.1,8.2-1.7,13-1.7c8,0,16.5,1.7,22.6,5.3
	c0.9,0.5,1.4,1.2,1.4,2.5C70,46.2,68.8,47.2,67.5,47.2z"/>
</svg>
