<?xml version="1.0" encoding="utf-8"?>
<!-- Generator: Adobe Illustrator 27.3.1, SVG Export Plug-In . SVG Version: 6.00 Build 0)  -->
<svg version="1.1" id="youtube_00000065033285658973372340000013790334708532222395_"
	 xmlns="http://www.w3.org/2000/svg" xmlns:xlink="http://www.w3.org/1999/xlink" x="0px" y="0px" viewBox="0 0 100 100"
	 style="enable-background:new 0 0 100 100;" xml:space="preserve">
<style type="text/css">
	.st0{fill:#FFFFFF;}
</style>
<circle id="circle" cx="50" cy="50" r="50"/>
<path id="youtube" class="st0" d="M76.2,36.8c-0.6-2.4-2.5-4.2-4.8-4.8C67.1,30.9,50,30.9,50,30.9s-17.1,0-21.4,1.1
	c-2.4,0.6-4.2,2.5-4.8,4.8C22.7,41.1,22.7,50,22.7,50s0,8.9,1.1,13.2c0.6,2.4,2.5,4.2,4.8,4.8c4.3,1.1,21.4,1.1,21.4,1.1
	s17.1,0,21.4-1.1c2.4-0.6,4.2-2.5,4.8-4.8c1.1-4.3,1.1-13.2,1.1-13.2S77.3,41.1,76.2,36.8z M44.5,58.2V41.8L58.7,50L44.5,58.2z"/>
</svg>
