<?xml version="1.0" standalone="no"?>
<!DOCTYPE svg PUBLIC "-//W3C//DTD SVG 20010904//EN"
 "http://www.w3.org/TR/2001/REC-SVG-20010904/DTD/svg10.dtd">
<svg version="1.0" xmlns="http://www.w3.org/2000/svg"
 width="700.000000pt" height="700.000000pt" viewBox="0 0 700.000000 700.000000"
 preserveAspectRatio="xMidYMid meet">
<metadata>
Created by potrace 1.14, written by Peter Selinger 2001-2017
</metadata>
<g transform="translate(0.000000,700.000000) scale(0.100000,-0.100000)"
fill="#000000" stroke="none">
<path d="M6497 3674 c-10 -11 2 -24 23 -24 16 0 19 -9 22 -50 4 -66 22 -69 26
-4 3 46 6 52 27 56 23 5 24 2 27 -49 3 -59 20 -72 28 -21 l5 32 19 -29 19 -29
18 23 19 23 0 -26 c0 -16 5 -26 15 -26 12 0 15 14 15 65 0 36 -4 65 -10 65 -5
0 -20 -16 -33 -36 l-25 -35 -20 33 c-21 33 -23 34 -95 36 -40 2 -76 0 -80 -4z"/>
<path d="M395 3387 c-45 -25 -85 -92 -85 -142 0 -45 40 -116 79 -142 l34 -23
772 0 772 0 33 23 c49 33 72 70 77 124 6 60 -21 120 -69 155 l-33 23 -770 2
-770 3 -40 -23z"/>
<path d="M4864 3391 c-90 -55 -115 -165 -55 -249 46 -65 11 -62 851 -62 758 0
762 0 800 21 50 28 80 83 80 146 0 55 -24 101 -73 137 -28 21 -35 21 -800 24
-742 2 -773 1 -803 -17z"/>
<path d="M3385 3321 c-34 -8 -85 -39 -85 -51 0 -19 -142 -158 -231 -225 -169
-127 -407 -254 -479 -255 -14 0 -43 -10 -65 -23 -45 -25 -85 -92 -85 -142 0
-45 40 -116 79 -142 129 -86 486 74 878 393 l32 26 73 -62 c103 -87 283 -206
414 -272 206 -106 343 -134 415 -85 52 35 79 82 79 139 0 92 -44 141 -152 169
-202 53 -544 276 -672 439 -65 82 -126 110 -201 91z"/>
</g>
</svg>
