<?xml version="1.0" encoding="UTF-8"?><svg id="julie_with_headphones" xmlns="http://www.w3.org/2000/svg" viewBox="0 0 512 512"><defs><style>.cls-1{fill:#fff;}.cls-2{stroke-width:9.6px;}.cls-2,.cls-3{fill:none;stroke:#272d3b;stroke-linecap:round;stroke-linejoin:round;}.cls-4{fill:#fffaf7;}</style></defs><rect class="cls-1" x="0" width="512" height="512"/><rect class="cls-4" x="0" y="0" width="512" height="512"/><g id="julie"><g id="face"><g id="eyes"><g id="closed"><line class="cls-2" x1="124.43" y1="277.55" x2="188.4" y2="277.55"/><line class="cls-2" x1="323.6" y1="277.55" x2="387.57" y2="277.55"/></g></g><path id="mouth" class="cls-2" d="M292.51,305.23c-8.42-.66-30.21-14.2-36.4-23.85h-.22c-6.19,9.65-27.98,23.19-36.4,23.85"/></g><g id="TM"><g id="T"><line class="cls-3" x1="397.61" y1="258.64" x2="393.51" y2="258.64"/><line class="cls-3" x1="395.56" y1="263.46" x2="395.56" y2="258.64"/></g><polyline id="M" class="cls-3" points="404.23 263.46 404.23 258.64 401.76 262.57 399.3 258.64 399.3 263.46"/></g></g><g id="headphones"><g id="b"><rect class="cls-2" x="440.04" y="257.86" width="43.37" height="49.61" rx="21.69" ry="21.69" transform="translate(923.46 565.32) rotate(-180)"/><line class="cls-2" x1="440.04" y1="307.46" x2="440.04" y2="227.71"/></g><g id="d"><rect class="cls-2" x="28.58" y="257.86" width="44.5" height="49.61" rx="22.25" ry="22.25"/><line class="cls-2" x1="73.08" y1="307.46" x2="73.08" y2="227.71"/></g></g></svg>