<?xml version="1.0" encoding="utf-8"?>
<!-- Generator: Adobe Illustrator 27.3.1, SVG Export Plug-In . SVG Version: 6.00 Build 0)  -->
<svg version="1.1" id="apple_music" xmlns="http://www.w3.org/2000/svg" xmlns:xlink="http://www.w3.org/1999/xlink" x="0px"
	 y="0px" viewBox="0 0 100 100" style="enable-background:new 0 0 100 100;" xml:space="preserve">
<style type="text/css">
	.st0{fill:url(#SVGID_1_);}
	.st1{fill:none;stroke:#FFFFFF;stroke-width:2.9186;stroke-miterlimit:10;}
	.st2{fill:#FFFFFF;}
</style>
<linearGradient id="SVGID_1_" gradientUnits="userSpaceOnUse" x1="14.6447" y1="14.6447" x2="85.3553" y2="85.3553">
	<stop  offset="0" style="stop-color:#FF5E4F"/>
	<stop  offset="0.2821" style="stop-color:#FC678E"/>
	<stop  offset="0.4167" style="stop-color:#D66AB9"/>
	<stop  offset="0.6397" style="stop-color:#9A6EFE"/>
	<stop  offset="0.663" style="stop-color:#9374FE"/>
	<stop  offset="0.892" style="stop-color:#52ABFB"/>
	<stop  offset="1" style="stop-color:#39C0FA"/>
</linearGradient>
<circle class="st0" cx="50" cy="50" r="50"/>
<g id="apple_music_00000116917561273182066890000010049442918489466293_">
	<path class="st1" d="M26,83.5C7.5,70.2,3.4,44.4,16.6,25.9C29.9,7.4,55.6,3.1,74,16.5c18.4,13.3,22.6,39.1,9.4,57.7
		C70.1,92.6,44.4,96.9,26,83.5L26,83.5z"/>
	<path class="st2" d="M64.6,69.7c2.6-0.8,4.4-2.6,5.2-5.2l0.2-0.8l0-20.6c0-15.4,0-20.7-0.1-21c-0.1-0.3-0.2-0.6-0.4-0.8
		c-0.3-0.2-0.6-0.3-1-0.3c-0.3,0-1.2,0.1-2,0.3c-3.7,0.7-25.6,5-26,5.2c-0.6,0.2-1.2,0.7-1.4,1.3L39,28.2c0,0-0.1,32.3-0.3,32.7
		c-0.3,0.6-0.8,1.1-1.3,1.2c-0.2,0.1-1.2,0.3-2.2,0.5c-4.4,0.9-6,1.5-7.4,2.9c-0.8,0.8-1.4,1.8-1.6,2.9C26,69.4,26,71,26.4,72
		c0.4,1,0.9,1.9,1.7,2.5c0.7,0.5,1.5,0.9,2.4,1.2c2,0.5,5.8-0.1,7.7-1.2C39,74,40,73,40.5,72.2c0.2-0.3,0.5-1,0.7-1.4
		c0.6-1.6,0.6-30.6,0.7-31c0.1-0.6,0.6-1.1,1.1-1.2c0.5-0.1,21.6-4.3,22.2-4.4c0.5-0.1,1,0.1,1.3,0.4c0.2,0.1,0.3,0.2,0.4,0.3
		c0.2,0.3,0.2,0.8,0.2,9.9c0,10.6,0,10.3-0.5,11c-0.4,0.5-0.9,0.7-3.1,1.1c-3.3,0.7-4.4,1-5.6,1.6c-1.6,0.8-2.4,1.6-3.1,3
		c-0.5,1-0.6,1.7-0.6,2.7c0,1.7,0.6,3.1,2,4.4c0.1,0.1,0.2,0.2,0.4,0.3c0.7,0.5,1.4,0.8,2.3,1C60.1,70.4,62.8,70.2,64.6,69.7z"/>
</g>
</svg>
