<?xml version="1.0" encoding="utf-8"?>
<!-- Generator: Adobe Illustrator 27.3.1, SVG Export Plug-In . SVG Version: 6.00 Build 0)  -->
<svg version="1.1" id="Layer_1" xmlns="http://www.w3.org/2000/svg" xmlns:xlink="http://www.w3.org/1999/xlink" x="0px" y="0px"
	 viewBox="0 0 100 100" style="enable-background:new 0 0 100 100;" xml:space="preserve">
<style type="text/css">
	.st0{fill:url(#SVGID_1_);}
	.st1{fill:#FFFFFF;}
</style>
<linearGradient id="SVGID_1_" gradientUnits="userSpaceOnUse" x1="50" y1="97.0051" x2="50" y2="-2.023436e-02">
	<stop  offset="0" style="stop-color:#0062E0"/>
	<stop  offset="1" style="stop-color:#19AFFF"/>
</linearGradient>
<circle class="st0" cx="50" cy="50" r="50"/>
<path class="st1" d="M80.4,50.1c0,15-10.9,27.5-25.2,30V58.6h6.7l1.4-8.5h-8.1v-5.9c0-2.4,0.9-4.3,4.6-4.3h4v-7.8
	c-2.1-0.3-4.6-0.6-6.7-0.6c-7,0-11.9,4.3-11.9,11.9v6.7h-7.6v8.5h7.6v21.5c-14.5-2.3-25.6-14.9-25.6-30c0-16.8,13.6-30.4,30.4-30.4
	S80.4,33.3,80.4,50.1z"/>
</svg>
