<?xml version="1.0" encoding="utf-8"?>
<!-- Generator: Adobe Illustrator 27.3.1, SVG Export Plug-In . SVG Version: 6.00 Build 0)  -->
<svg version="1.1" id="soundcloud" xmlns="http://www.w3.org/2000/svg" xmlns:xlink="http://www.w3.org/1999/xlink" x="0px" y="0px"
	 viewBox="0 0 100 100" style="enable-background:new 0 0 100 100;" xml:space="preserve">
<style type="text/css">
	.st0{fill:#FF5500;}
	.st1{fill:#FFFFFF;}
</style>
<circle id="circle" class="st0" cx="50" cy="50" r="50"/>
<g id="cloud">
	<path class="st1" d="M71.8,42.8c2.2-0.3,4.2-0.3,6.2,0.6c3.7,1.8,6,5.8,5.4,9.7c-0.6,4.2-3.9,7.5-8.1,8c-0.8,0.1-1.6,0.2-2.4,0.2
		c-7.2,0-14.4,0-21.6,0c-2.2,0-2.9-0.7-2.9-2.8c0-7.8,0-15.8,0-23.6c0-1.5,0.6-2.5,2-3.1c4.8-1.9,9.5-1.5,13.9,1c3.4,2,5.8,5,7,8.8
		C71.5,42,71.6,42.3,71.8,42.8z"/>
	<path class="st1" d="M44.7,61.3c0,0-0.9,0.1-1.1-1.9c-0.1-0.6-0.5-4.4-0.5-9c0-4.3,0.4-11.2,0.7-14.7c0.1-1,0.6-1,0.8-1
		s0.8,0,0.8,1c0.3,3.5,0.7,10.4,0.7,14.7c0,4.5-0.4,8.4-0.5,9C45.5,61.4,44.7,61.3,44.7,61.3z"/>
	<path class="st1" d="M39.8,61.3c0,0-0.9,0.1-1.1-1.9c-0.1-0.6-0.5-4.4-0.5-9c0-4.3,0.4-8.2,0.7-11.7c0.1-1,0.6-1,0.8-1s0.8,0,0.8,1
		c0.3,3.5,0.7,7.4,0.7,11.7c0,4.5-0.4,8.4-0.5,9C40.6,61.4,39.8,61.3,39.8,61.3z"/>
	<path class="st1" d="M39.8,61.3c0,0-0.9,0.1-1.1-1.9c-0.1-0.6-0.5-4.4-0.5-9c0-4.3,0.4-8.2,0.7-11.7c0.1-1,0.6-1,0.8-1s0.8,0,0.8,1
		c0.3,3.5,0.7,7.4,0.7,11.7c0,4.5-0.4,8.4-0.5,9C40.6,61.4,39.8,61.3,39.8,61.3z"/>
	<path class="st1" d="M35.1,61.3c0,0-0.9,0.1-1.1-1.9c-0.1-0.6-0.5-4.4-0.5-9c0-4.3,0.4-8.9,0.7-12.4c0.1-1,0.6-1,0.8-1s0.8,0,0.8,1
		c0.3,3.5,0.7,8.1,0.7,12.4c0,4.5-0.4,8.4-0.5,9C36,61.4,35.1,61.3,35.1,61.3z"/>
	<path class="st1" d="M30.3,61.3c0,0-0.9,0.1-1.1-1.9c-0.1-0.6-0.5-4.4-0.5-9c0-4.3,0.4-6.7,0.7-10.2c0.1-1,0.6-1,0.8-1
		c0.2,0,0.8,0,0.8,1c0.3,3.5,0.7,5.9,0.7,10.2c0,4.5-0.4,8.4-0.5,9C31.1,61.4,30.3,61.3,30.3,61.3z"/>
	<path class="st1" d="M25.5,61.3c0,0-0.9,0.1-1.1-1.9c-0.1-0.6-0.5-4.4-0.5-9c0-1.4,0.4-3.8,0.7-5c0.2-0.9,0.6-1,0.8-1
		s0.6,0.1,0.8,1c0.3,1.2,0.7,3.6,0.7,5c0.1,4.5-0.4,8.4-0.5,9C26.3,61.4,25.5,61.3,25.5,61.3z"/>
	<path class="st1" d="M20.7,60.7c0,0-0.9,0.1-1.1-1.9c-0.1-0.6-0.5-3.9-0.5-8.4c0-1.4,0.4-4.7,0.7-5.9c0.2-0.9,0.6-1,0.8-1
		c0.2,0,0.6,0.1,0.8,1c0.3,1.2,0.7,4.4,0.7,5.9c0.1,4.5-0.4,7.8-0.5,8.4C21.5,60.9,20.7,60.7,20.7,60.7z"/>
	<path class="st1" d="M15.9,46.3c-0.2,0-0.5,0.2-0.9,0.8c-0.4,0.8-0.7,2.1-0.7,3.3c0,2.2,0.3,5.1,0.5,5.8c0.4,2,1.1,1.9,1.1,1.9
		s0.6,0.1,1.1-1.9c0.2-0.7,0.5-3.6,0.5-5.8c0-1.2-0.2-2.5-0.7-3.3C16.4,46.5,16.1,46.3,15.9,46.3z"/>
</g>
</svg>
